<svg data-v-fde0c5aa="" xmlns="http://www.w3.org/2000/svg" viewBox="0 0 300 300" class="iconAbove"><!----><defs data-v-fde0c5aa=""><!----></defs><rect data-v-fde0c5aa="" fill="#0B345A" x="0" y="0" width="300px" height="300px" class="logo-background-square"></rect><defs data-v-fde0c5aa=""><!----></defs><g data-v-fde0c5aa="" id="62819e2a-0a9c-4715-bff8-5d574e2f3532" fill="#22C4D6" transform="matrix(2.3389707757685607,0,0,2.3389707757685607,18.432889541199277,173.6185666514859)"><path d="M9.46 10.26L8.65 1.86L7.41 1.86L5.07 5.11L2.73 1.86L1.13 1.86L1.39 2.91L0.67 10.26L2.04 10.26L2.60 3.79L4.72 6.66L5.42 6.66L7.53 3.79L8.09 10.26ZM17.04 7C17.04 4.87 15.82 3.57 13.87 3.57C11.93 3.57 10.70 4.87 10.70 7C10.70 9.11 11.93 10.43 13.87 10.43C15.82 10.43 17.04 9.11 17.04 7ZM15.67 7C15.67 8.50 14.97 9.28 13.87 9.28C12.77 9.28 12.07 8.50 12.07 7C12.07 5.50 12.77 4.70 13.87 4.70C14.97 4.70 15.67 5.50 15.67 7ZM24.18 3.72L21.53 3.72L21.53 4.19L22.41 4.62L20.93 8.58L19.12 3.72L17.70 3.72L20.31 10.26L21.55 10.26ZM26.89 1.40C26.89 0.92 26.52 0.55 26.05 0.55C25.59 0.55 25.21 0.92 25.21 1.40C25.21 1.86 25.59 2.24 26.05 2.24C26.52 2.24 26.89 1.86 26.89 1.40ZM27.72 10.26L27.72 9.80L26.71 9.28L26.71 3.72L25.40 3.72L25.40 10.26ZM35.57 10.26L35.57 9.80L34.55 9.28L34.55 6.02C34.55 4.47 33.49 3.57 31.75 3.57C30.90 3.57 29.86 3.74 29.01 3.99L28.78 4.05L29.09 5.08L29.09 10.26L30.41 10.26L30.41 4.89C30.83 4.77 31.30 4.70 31.75 4.70C32.73 4.70 33.24 5.15 33.24 6.02L33.24 10.26ZM42.35 4.05L42.13 3.99C41.29 3.75 40.11 3.57 39.19 3.57C37.45 3.57 36.34 4.61 36.34 5.96C36.34 7.15 37.17 8.11 38.54 8.32C38.39 8.41 38.26 8.62 38.26 8.86C38.26 9.10 38.39 9.31 38.54 9.41C37.17 9.62 36.34 10.57 36.34 11.76C36.34 13.12 37.45 14.15 39.19 14.15C40.94 14.15 42.04 13.12 42.04 11.76C42.04 10.70 41.37 9.83 40.25 9.49C39.76 9.35 39.58 9.16 39.58 8.86C39.58 8.57 39.76 8.37 40.25 8.23C41.36 7.91 42.04 7.03 42.04 5.96L42.04 5.08ZM40.73 5.96C40.73 6.69 40.15 7.22 39.19 7.22C38.23 7.22 37.66 6.71 37.66 5.96C37.66 5.24 38.23 4.70 39.19 4.70C39.75 4.70 40.33 4.79 40.73 4.87ZM40.73 11.76C40.73 12.49 40.15 13.02 39.19 13.02C38.23 13.02 37.66 12.49 37.66 11.76C37.66 11.03 38.23 10.50 39.19 10.50C40.15 10.50 40.71 11.02 40.73 11.76ZM53.90 7.80C53.90 6.24 52.85 5.35 50.69 5.35C49.52 5.35 48.97 4.90 48.97 4.14C48.97 3.57 49.59 2.90 50.89 2.90C51.60 2.90 52.18 2.97 52.77 3.11L53.28 4.00L53.73 4.00L53.73 2.18C52.78 1.86 51.98 1.69 50.89 1.69C48.66 1.69 47.54 2.98 47.54 4.27C47.54 5.81 48.55 6.73 50.69 6.73C51.88 6.73 52.46 7.15 52.46 7.92C52.46 8.55 51.86 9.23 50.50 9.23C49.41 9.23 48.50 9.06 47.54 8.74L47.54 9.94C48.50 10.26 49.41 10.43 50.50 10.43C52.78 10.43 53.90 9.10 53.90 7.80ZM59.51 10.28L59.51 9.13C59.25 9.23 58.91 9.28 58.60 9.28C57.69 9.28 57.29 8.86 57.29 8.09L57.29 4.86L59.51 4.86L59.51 3.72L57.29 3.72L57.29 1.76L55.97 1.96L55.97 3.72L54.57 3.72L54.57 4.86L55.97 4.86L55.97 8.09C55.97 9.55 56.94 10.43 58.60 10.43C58.88 10.43 59.25 10.36 59.51 10.28ZM67.27 10.26L67.27 9.14C67.07 9.21 66.85 9.28 66.61 9.28C66.29 9.28 66.15 9.13 66.15 8.81L66.15 6.02C66.15 4.44 65.03 3.57 63.22 3.57C62.64 3.57 61.91 3.70 61.25 3.88L61.25 5.80L61.70 5.80L62.22 4.82C62.57 4.75 62.93 4.70 63.22 4.70C64.30 4.70 64.83 5.17 64.83 6.02L64.83 6.40L63.07 6.40C61.43 6.40 60.58 7.24 60.58 8.34C60.58 9.53 61.54 10.43 63.29 10.43C63.97 10.43 64.62 10.25 65.16 9.98C65.39 10.26 65.81 10.43 66.28 10.43C66.63 10.43 67.00 10.35 67.27 10.26ZM64.83 9.02C64.37 9.24 63.83 9.38 63.29 9.38C62.37 9.38 61.91 8.99 61.91 8.34C61.91 7.78 62.26 7.43 63.07 7.43L64.83 7.43ZM72.65 10.28L72.65 9.13C72.38 9.23 72.04 9.28 71.74 9.28C70.83 9.28 70.42 8.86 70.42 8.09L70.42 4.86L72.65 4.86L72.65 3.72L70.42 3.72L70.42 1.76L69.10 1.96L69.10 3.72L67.70 3.72L67.70 4.86L69.10 4.86L69.10 8.09C69.10 9.55 70.07 10.43 71.74 10.43C72.02 10.43 72.38 10.36 72.65 10.28ZM75.77 1.40C75.77 0.92 75.39 0.55 74.93 0.55C74.47 0.55 74.09 0.92 74.09 1.40C74.09 1.86 74.47 2.24 74.93 2.24C75.39 2.24 75.77 1.86 75.77 1.40ZM76.59 10.26L76.59 9.80L75.59 9.28L75.59 3.72L74.27 3.72L74.27 10.26ZM83.71 7C83.71 4.87 82.49 3.57 80.54 3.57C78.60 3.57 77.36 4.87 77.36 7C77.36 9.11 78.60 10.43 80.54 10.43C82.49 10.43 83.71 9.11 83.71 7ZM82.33 7C82.33 8.50 81.63 9.28 80.54 9.28C79.44 9.28 78.74 8.50 78.74 7C78.74 5.50 79.44 4.70 80.54 4.70C81.63 4.70 82.33 5.50 82.33 7ZM91.91 10.26L91.91 9.80L90.89 9.28L90.89 6.02C90.89 4.47 89.82 3.57 88.09 3.57C87.23 3.57 86.20 3.74 85.34 3.99L85.12 4.05L85.43 5.08L85.43 10.26L86.74 10.26L86.74 4.89C87.16 4.77 87.64 4.70 88.09 4.70C89.07 4.70 89.57 5.15 89.57 6.02L89.57 10.26ZM95.79 3.57C93.91 3.57 92.68 4.86 92.68 7C92.68 9.21 94.07 10.43 96.32 10.43C96.94 10.43 97.72 10.29 98.28 10.08L98.28 8.95C97.71 9.14 96.96 9.28 96.32 9.28C95.05 9.28 94.16 8.74 94.05 7.43L98.80 7.43C98.81 7.29 98.81 7.15 98.81 7C98.81 4.86 97.68 3.57 95.79 3.57ZM97.51 6.36L94.07 6.36C94.19 5.25 94.85 4.65 95.79 4.65C96.68 4.65 97.37 5.22 97.51 6.36ZM104.97 5.80L104.97 3.86C104.44 3.70 103.73 3.57 103.19 3.57C102.34 3.57 101.30 3.74 100.45 3.99L100.23 4.05L100.53 5.08L100.53 10.26L101.85 10.26L101.85 4.89C102.27 4.77 102.75 4.70 103.19 4.70C103.43 4.70 103.71 4.73 103.99 4.79L104.51 5.80ZM111.83 3.72L109.19 3.72L109.19 4.19L110.05 4.61L108.58 8.50L106.79 3.72L105.35 3.72L107.90 10.00L106.26 14L107.63 14Z"></path></g><defs data-v-fde0c5aa=""><!----></defs><g data-v-fde0c5aa="" id="e5ad1169-bdb3-4e8d-9894-e4648f755516" stroke="none" fill="#22C4D6" transform="matrix(1.8427204138673787,0,0,1.8427204138673787,57.32220605064317,28.29049098611216)"><path d="M38.718 39.138l-7.061.489a.742.742 0 00-.48.227l-5.146 5.406a.725.725 0 00-.2.446l-.204 2.466a.734.734 0 00.733.795h12.407a.734.734 0 00.735-.733v-8.362a.735.735 0 00-.784-.734zm-.684 8.36H27.158l.117-1.411 4.771-5.012 5.988-.416v6.839zM17.886 60.547a2.368 2.368 0 00-2.364 2.366 2.366 2.366 0 002.364 2.363 2.367 2.367 0 002.365-2.363 2.368 2.368 0 00-2.365-2.366zm0 3.261a.896.896 0 11.002-1.792.896.896 0 01-.002 1.792zM70.07 61.034a2.367 2.367 0 00-2.365 2.365 2.368 2.368 0 002.365 2.364 2.367 2.367 0 002.364-2.364 2.366 2.366 0 00-2.364-2.365zm0 3.258a.895.895 0 11-.003-1.79.895.895 0 01.003 1.79z"></path><path d="M94.636 47.498h-8.653c-.05-.414-.107-.825-.169-1.241h3.393a.734.734 0 000-1.47h-3.642c-.086-.456-.18-.908-.283-1.358h6.946a.735.735 0 100-1.47h-7.316a26.863 26.863 0 00-.396-1.3h2.404a.734.734 0 100-1.47h-2.952a18.424 18.424 0 00-.99-2.057.733.733 0 00-.049-.123c-.267-.518-.893-1.733-27.918-1.733-.818-.006-20.025-.123-25.008 1.207a.742.742 0 00-.333.193L19.521 46.912c-3.855.366-12.171 1.455-12.601 4.033-.312 1.874-.156 4.562-.062 5.771-.891.357-1.774 1.236-1.618 2.792.185 1.845.485 3.54 2.113 3.984.591.159 1.754.202 2.803.202.516 0 1.002-.01 1.381-.021.377 3.169 3.078 5.636 6.347 5.636 3.45 0 6.263-2.747 6.385-6.167 1.729.021 5.901.029 10.946.029 10.6 0 25.007-.033 28.471-.042-.005.09-.014.18-.014.271a6.404 6.404 0 006.396 6.396 6.403 6.403 0 006.396-6.396c0-.078-.009-.152-.011-.229h7.322c1.986 0 2.918-.094 3.539-.675.667-.624.666-1.527.664-3.024v-.199c0-1.354-.338-2.293-1.004-2.797a1.785 1.785 0 00-.6-.3 63.646 63.646 0 00-.236-7.208h8.495a.734.734 0 00.733-.733.73.73 0 00-.73-.737zM8.371 51.187c.058-.345.907-.778 2.324-1.212v3.145c-.127.21-.676.861-2.487.836-.008-.954.028-1.959.163-2.769zm-.63 10.885c-.371-.102-.632-.366-.828-1.268h4.941c-.158.445-.27.911-.323 1.397-1.359.041-3.187.035-3.79-.129zm10.145 5.767a4.934 4.934 0 01-4.926-4.928 4.932 4.932 0 014.926-4.925 4.932 4.932 0 014.926 4.925 4.933 4.933 0 01-4.926 4.928zm6.273-6.17a6.312 6.312 0 00-.433-1.354h40.743c-.23.421-.415.871-.549 1.344-4.24.01-34.812.082-39.761.01zm45.911 6.656a4.932 4.932 0 01-4.926-4.926c0-2.718 2.21-4.928 4.926-4.928s4.927 2.21 4.927 4.928a4.933 4.933 0 01-4.927 4.926zm13.707-6.624H76.23a6.288 6.288 0 00-.675-1.575h10.951c-.006.662-.042 1.152-.195 1.297-.297.278-1.697.278-2.534.278zm1.144-7.742h-.476v-2.355h.41c.04.819.06 1.607.066 2.355zm-.152-3.827h-1.058a.736.736 0 00-.735.736v3.826c0 .405.329.734.735.734h1.207c-.003.242-.007.477-.012.703h-1.195a.735.735 0 100 1.469h1.911l.016-.001c.02 0 .037-.004.054-.006a.601.601 0 00.106-.017c.009-.002.018-.001.025-.005a.401.401 0 01.267.074c.079.061.299.297.384 1.008H74.562a.722.722 0 00-.187.027 6.36 6.36 0 00-4.306-1.681 6.372 6.372 0 00-4.483 1.841H42.368v-7.239h35.505a.735.735 0 000-1.471H42.368V39.925a.736.736 0 00-1.471 0v18.917H27.096v-8.11a.736.736 0 10-1.47 0v8.11H23.03a.746.746 0 00-.19.028 6.382 6.382 0 00-4.954-2.355 6.393 6.393 0 00-5.301 2.822c-.014-.001-.026-.005-.04-.005H6.704c-.092-1.073.685-1.292 1.02-1.335.019-.001.035-.008.053-.01l3.211.015h.003a.734.734 0 00.003-1.469L8.32 56.52c-.022-.295-.047-.67-.068-1.093l.053.002c3.266 0 3.812-1.878 3.836-1.965a.762.762 0 00.025-.19v-3.565a.817.817 0 00-.013-.129c2.029-.494 4.736-.95 7.769-1.228a.749.749 0 00.456-.216l10.19-10.282c5.099-1.229 24.236-1.111 24.436-1.108 21.909 0 25.954.829 26.687 1.097.243.429.464.882.675 1.346h-2.628a.735.735 0 000 1.47h3.22c.152.425.293.857.425 1.3h-7.982a.735.735 0 100 1.47h8.378c.107.449.207.902.297 1.358H71.699a.735.735 0 000 1.47h12.635c.064.416.122.827.175 1.241h-2.726a.735.735 0 000 1.469h2.889c.036.393.068.781.097 1.165z"></path><path d="M72.259 43.428h1.279a.736.736 0 000-1.47h-1.279a.734.734 0 000 1.47zM79.737 47.498h-1.143a.735.735 0 100 1.469h1.143a.734.734 0 100-1.469zM38.768 49.996a.736.736 0 00-.734.736v2.003a.734.734 0 001.469 0v-2.003a.736.736 0 00-.735-.736z"></path></g><!----></svg>