<svg data-v-fde0c5aa="" xmlns="http://www.w3.org/2000/svg" viewBox="0 0 300 300" class="font"><!----><defs data-v-fde0c5aa=""><!----></defs><rect data-v-fde0c5aa="" fill="#0B345A" x="0" y="0" width="300px" height="300px" class="logo-background-square"></rect><defs data-v-fde0c5aa=""><!----></defs><g data-v-fde0c5aa="" id="222a8f6b-6bc3-4235-b92f-490b937f7e7d" fill="#22C4D6" transform="matrix(1.9791291179580128,0,0,1.9791291179580128,38.67398345793785,135.45340152564893)"><path d="M9.46 10.26L8.65 1.86L7.41 1.86L5.07 5.11L2.73 1.86L1.13 1.86L1.39 2.91L0.67 10.26L2.04 10.26L2.60 3.79L4.72 6.66L5.42 6.66L7.53 3.79L8.09 10.26ZM17.04 7C17.04 4.87 15.82 3.57 13.87 3.57C11.93 3.57 10.70 4.87 10.70 7C10.70 9.11 11.93 10.43 13.87 10.43C15.82 10.43 17.04 9.11 17.04 7ZM15.67 7C15.67 8.50 14.97 9.28 13.87 9.28C12.77 9.28 12.07 8.50 12.07 7C12.07 5.50 12.77 4.70 13.87 4.70C14.97 4.70 15.67 5.50 15.67 7ZM24.18 3.72L21.53 3.72L21.53 4.19L22.41 4.62L20.93 8.58L19.12 3.72L17.70 3.72L20.31 10.26L21.55 10.26ZM26.89 1.40C26.89 0.92 26.52 0.55 26.05 0.55C25.59 0.55 25.21 0.92 25.21 1.40C25.21 1.86 25.59 2.24 26.05 2.24C26.52 2.24 26.89 1.86 26.89 1.40ZM27.72 10.26L27.72 9.80L26.71 9.28L26.71 3.72L25.40 3.72L25.40 10.26ZM35.57 10.26L35.57 9.80L34.55 9.28L34.55 6.02C34.55 4.47 33.49 3.57 31.75 3.57C30.90 3.57 29.86 3.74 29.01 3.99L28.78 4.05L29.09 5.08L29.09 10.26L30.41 10.26L30.41 4.89C30.83 4.77 31.30 4.70 31.75 4.70C32.73 4.70 33.24 5.15 33.24 6.02L33.24 10.26ZM42.35 4.05L42.13 3.99C41.29 3.75 40.11 3.57 39.19 3.57C37.45 3.57 36.34 4.61 36.34 5.96C36.34 7.15 37.17 8.11 38.54 8.32C38.39 8.41 38.26 8.62 38.26 8.86C38.26 9.10 38.39 9.31 38.54 9.41C37.17 9.62 36.34 10.57 36.34 11.76C36.34 13.12 37.45 14.15 39.19 14.15C40.94 14.15 42.04 13.12 42.04 11.76C42.04 10.70 41.37 9.83 40.25 9.49C39.76 9.35 39.58 9.16 39.58 8.86C39.58 8.57 39.76 8.37 40.25 8.23C41.36 7.91 42.04 7.03 42.04 5.96L42.04 5.08ZM40.73 5.96C40.73 6.69 40.15 7.22 39.19 7.22C38.23 7.22 37.66 6.71 37.66 5.96C37.66 5.24 38.23 4.70 39.19 4.70C39.75 4.70 40.33 4.79 40.73 4.87ZM40.73 11.76C40.73 12.49 40.15 13.02 39.19 13.02C38.23 13.02 37.66 12.49 37.66 11.76C37.66 11.03 38.23 10.50 39.19 10.50C40.15 10.50 40.71 11.02 40.73 11.76ZM53.90 7.80C53.90 6.24 52.85 5.35 50.69 5.35C49.52 5.35 48.97 4.90 48.97 4.14C48.97 3.57 49.59 2.90 50.89 2.90C51.60 2.90 52.18 2.97 52.77 3.11L53.28 4.00L53.73 4.00L53.73 2.18C52.78 1.86 51.98 1.69 50.89 1.69C48.66 1.69 47.54 2.98 47.54 4.27C47.54 5.81 48.55 6.73 50.69 6.73C51.88 6.73 52.46 7.15 52.46 7.92C52.46 8.55 51.86 9.23 50.50 9.23C49.41 9.23 48.50 9.06 47.54 8.74L47.54 9.94C48.50 10.26 49.41 10.43 50.50 10.43C52.78 10.43 53.90 9.10 53.90 7.80ZM59.51 10.28L59.51 9.13C59.25 9.23 58.91 9.28 58.60 9.28C57.69 9.28 57.29 8.86 57.29 8.09L57.29 4.86L59.51 4.86L59.51 3.72L57.29 3.72L57.29 1.76L55.97 1.96L55.97 3.72L54.57 3.72L54.57 4.86L55.97 4.86L55.97 8.09C55.97 9.55 56.94 10.43 58.60 10.43C58.88 10.43 59.25 10.36 59.51 10.28ZM67.27 10.26L67.27 9.14C67.07 9.21 66.85 9.28 66.61 9.28C66.29 9.28 66.15 9.13 66.15 8.81L66.15 6.02C66.15 4.44 65.03 3.57 63.22 3.57C62.64 3.57 61.91 3.70 61.25 3.88L61.25 5.80L61.70 5.80L62.22 4.82C62.57 4.75 62.93 4.70 63.22 4.70C64.30 4.70 64.83 5.17 64.83 6.02L64.83 6.40L63.07 6.40C61.43 6.40 60.58 7.24 60.58 8.34C60.58 9.53 61.54 10.43 63.29 10.43C63.97 10.43 64.62 10.25 65.16 9.98C65.39 10.26 65.81 10.43 66.28 10.43C66.63 10.43 67.00 10.35 67.27 10.26ZM64.83 9.02C64.37 9.24 63.83 9.38 63.29 9.38C62.37 9.38 61.91 8.99 61.91 8.34C61.91 7.78 62.26 7.43 63.07 7.43L64.83 7.43ZM72.65 10.28L72.65 9.13C72.38 9.23 72.04 9.28 71.74 9.28C70.83 9.28 70.42 8.86 70.42 8.09L70.42 4.86L72.65 4.86L72.65 3.72L70.42 3.72L70.42 1.76L69.10 1.96L69.10 3.72L67.70 3.72L67.70 4.86L69.10 4.86L69.10 8.09C69.10 9.55 70.07 10.43 71.74 10.43C72.02 10.43 72.38 10.36 72.65 10.28ZM75.77 1.40C75.77 0.92 75.39 0.55 74.93 0.55C74.47 0.55 74.09 0.92 74.09 1.40C74.09 1.86 74.47 2.24 74.93 2.24C75.39 2.24 75.77 1.86 75.77 1.40ZM76.59 10.26L76.59 9.80L75.59 9.28L75.59 3.72L74.27 3.72L74.27 10.26ZM83.71 7C83.71 4.87 82.49 3.57 80.54 3.57C78.60 3.57 77.36 4.87 77.36 7C77.36 9.11 78.60 10.43 80.54 10.43C82.49 10.43 83.71 9.11 83.71 7ZM82.33 7C82.33 8.50 81.63 9.28 80.54 9.28C79.44 9.28 78.74 8.50 78.74 7C78.74 5.50 79.44 4.70 80.54 4.70C81.63 4.70 82.33 5.50 82.33 7ZM91.91 10.26L91.91 9.80L90.89 9.28L90.89 6.02C90.89 4.47 89.82 3.57 88.09 3.57C87.23 3.57 86.20 3.74 85.34 3.99L85.12 4.05L85.43 5.08L85.43 10.26L86.74 10.26L86.74 4.89C87.16 4.77 87.64 4.70 88.09 4.70C89.07 4.70 89.57 5.15 89.57 6.02L89.57 10.26ZM95.79 3.57C93.91 3.57 92.68 4.86 92.68 7C92.68 9.21 94.07 10.43 96.32 10.43C96.94 10.43 97.72 10.29 98.28 10.08L98.28 8.95C97.71 9.14 96.96 9.28 96.32 9.28C95.05 9.28 94.16 8.74 94.05 7.43L98.80 7.43C98.81 7.29 98.81 7.15 98.81 7C98.81 4.86 97.68 3.57 95.79 3.57ZM97.51 6.36L94.07 6.36C94.19 5.25 94.85 4.65 95.79 4.65C96.68 4.65 97.37 5.22 97.51 6.36ZM104.97 5.80L104.97 3.86C104.44 3.70 103.73 3.57 103.19 3.57C102.34 3.57 101.30 3.74 100.45 3.99L100.23 4.05L100.53 5.08L100.53 10.26L101.85 10.26L101.85 4.89C102.27 4.77 102.75 4.70 103.19 4.70C103.43 4.70 103.71 4.73 103.99 4.79L104.51 5.80ZM111.83 3.72L109.19 3.72L109.19 4.19L110.05 4.61L108.58 8.50L106.79 3.72L105.35 3.72L107.90 10.00L106.26 14L107.63 14Z"></path></g><!----><!----></svg>